<?xml version="1.0" ?><!DOCTYPE svg  PUBLIC '-//W3C//DTD SVG 1.1//EN'  'http://www.w3.org/Graphics/SVG/1.1/DTD/svg11.dtd'><svg height="512px" style="enable-background:new 0 0 512 512;" version="1.1" viewBox="0 0 512 512" width="512px" xml:space="preserve" xmlns="http://www.w3.org/2000/svg" xmlns:xlink="http://www.w3.org/1999/xlink"><g id="Girl_x2C__hipster_x2C__lady_x2C__woman_x2C__teacher"><g><path d="M255.971,495.435c131.895,0,239.464-107.569,239.464-239.465    c0-131.837-107.569-239.404-239.464-239.404c-131.838,0-239.405,107.567-239.405,239.404    C16.565,387.865,124.133,495.435,255.971,495.435L255.971,495.435z" style="fill-rule:evenodd;clip-rule:evenodd;fill:#1C1C1C;"/><path d="M46.386,140.107l177.578-63.003l41.425,365.247l10.257,52.294    c-6.501,0.508-13.058,0.789-19.675,0.789c-132.229,0-239.405-107.231-239.405-239.465    C16.565,213.986,27.384,174.469,46.386,140.107L46.386,140.107z" style="fill-rule:evenodd;clip-rule:evenodd;fill:#0A0A0A;"/><path d="M214.716,283.491c13.229,0.281,40.975,1.628,54.204,1.854    c-1.063,20.627,1.961,24.217,13.286,35.703c5.044,28.759-29.654,89.405-38.624,105.27c-14.124-17.544-46.636-70.12-40.525-95.176    C213.314,321.611,215.781,305.076,214.716,283.491L214.716,283.491z" style="fill-rule:evenodd;clip-rule:evenodd;fill:#CACACA;"/><path d="M277.72,138.93c22.982,27.469,36.717,57.569,30.604,93.221    c-8.349,25.223-22.083,46.353-46.691,59.078c-12.499,10.708-25.112,10.539-37.893-1.792    c-81.391-51.797-82.566-98.095-49.272-119.116C202.89,152.325,259.671,157.764,277.72,138.93L277.72,138.93z" style="fill-rule:evenodd;clip-rule:evenodd;fill:#D6D6D6;"/><path d="M220.209,255.86c13.733-0.617,15.303-5.438,22.533-1.234    c5.494-3.756,12.781,1.4,22.143,1.29C255.467,276.88,228.729,277.269,220.209,255.86L220.209,255.86z" style="fill-rule:evenodd;clip-rule:evenodd;fill:#A7A7A7;"/><path d="M220.209,255.86c15.022,3.363,29.877,3.307,44.676,0.056    C250.869,263.985,232.877,263.709,220.209,255.86L220.209,255.86z" style="fill-rule:evenodd;clip-rule:evenodd;fill:#FEFEFE;"/><path d="M238.371,261.687c5.828-0.051,11.266,0.281,15.863,1.347    c-7.457,3.866-18.274,3.81-25.618-0.395C231.868,262.306,235.119,262.024,238.371,261.687L238.371,261.687z" style="fill-rule:evenodd;clip-rule:evenodd;fill:#CCCCCC;"/><path d="M246.947,261.636c7.062-0.958,13.115-2.751,17.938-5.72    c-2.86,2.969-6.503,5.325-10.932,7.061C251.655,262.531,249.301,262.081,246.947,261.636L246.947,261.636z" style="fill-rule:evenodd;clip-rule:evenodd;fill:#545454;"/><path d="M237.697,261.636c-7.007-0.958-12.5-2.751-17.377-5.72    c2.915,2.969,4.372,4.705,8.633,6.666C231.476,262.362,235.4,261.911,237.697,261.636L237.697,261.636z" style="fill-rule:evenodd;clip-rule:evenodd;fill:#545454;"/><path d="M246.273,215.781c1.065,8.519,4.989,13.9,4.652,16.369    c-0.729,2.857-3.923,7.676-8.744,10.536C250.702,234.56,247.228,226.543,246.273,215.781L246.273,215.781z" style="fill-rule:evenodd;clip-rule:evenodd;fill:#BEBEBE;"/><path d="M193.472,207.821c13.565-10.931,26.568-10.091,38.845,0    C220.04,217.912,207.037,218.808,193.472,207.821L193.472,207.821z" style="fill-rule:evenodd;clip-rule:evenodd;fill:#FFFFFF;"/><path d="M219.256,200.59c1.289,1.514,2.13,3.475,2.13,5.605    c0,4.708-3.811,8.519-8.52,8.519c-4.652,0-8.465-3.811-8.465-8.519c0-2.131,0.786-4.035,2.073-5.552    C210.792,199.694,215.052,199.694,219.256,200.59L219.256,200.59z" style="fill-rule:evenodd;clip-rule:evenodd;fill:#A9A9A9;"/><path d="M212.866,200.703c3.083,0,5.548,2.466,5.548,5.548    c0,3.083-2.465,5.549-5.548,5.549s-5.55-2.466-5.55-5.549C207.316,203.169,209.783,200.703,212.866,200.703L212.866,200.703z" style="fill-rule:evenodd;clip-rule:evenodd;fill:#505050;"/><path d="M215.107,201.543c0.954,0,1.683,0.727,1.683,1.682    c0,0.953-0.729,1.683-1.683,1.683c-0.952,0-1.737-0.729-1.737-1.683C213.37,202.27,214.155,201.543,215.107,201.543    L215.107,201.543z" style="fill-rule:evenodd;clip-rule:evenodd;fill:#FEFEFE;"/><path d="M256.924,207.821c13.565-10.931,26.569-10.091,38.791,0    C283.493,217.912,270.489,218.808,256.924,207.821L256.924,207.821z" style="fill-rule:evenodd;clip-rule:evenodd;fill:#FFFFFF;"/><path d="M282.707,200.59c1.291,1.514,2.074,3.475,2.074,5.605    c0,4.708-3.753,8.519-8.462,8.519s-8.462-3.811-8.462-8.519c0-2.131,0.783-4.035,2.073-5.552    C274.245,199.694,278.506,199.694,282.707,200.59L282.707,200.59z" style="fill-rule:evenodd;clip-rule:evenodd;fill:#A9A9A9;"/><path d="M276.319,200.703c3.083,0,5.548,2.466,5.548,5.548    c0,3.083-2.465,5.549-5.548,5.549s-5.549-2.466-5.549-5.549C270.771,203.169,273.236,200.703,276.319,200.703L276.319,200.703z" style="fill-rule:evenodd;clip-rule:evenodd;fill:#505050;"/><path d="M278.56,201.543c0.898,0,1.683,0.727,1.683,1.682    c0,0.953-0.784,1.683-1.683,1.683c-0.952,0-1.736-0.729-1.736-1.683C276.823,202.27,277.607,201.543,278.56,201.543    L278.56,201.543z" style="fill-rule:evenodd;clip-rule:evenodd;fill:#FEFEFE;"/><path d="M256.364,189.826c19.338-9.641,32.621-3.641,44.057,7.399    c-14.685-8.967-27.241-11.883-41.926-1.626C254.178,198.908,251.207,193.582,256.364,189.826L256.364,189.826z" style="fill-rule:evenodd;clip-rule:evenodd;fill:#767676;"/><path d="M231.251,189.826c-19.339-9.641-32.622-3.641-44.058,7.399    c14.686-8.967,27.242-11.883,41.929-1.626C233.438,198.908,236.409,193.582,231.251,189.826L231.251,189.826z" style="fill-rule:evenodd;clip-rule:evenodd;fill:#767676;"/><path d="M188.37,207.204    c0.169-5.718,3.531-9.026,9.585-10.145c16.48-1.738,33.576,0.896,35.875,7.96c5.493,20.684-18.834,34.641-34.529,25.11    C190.781,224.356,188.539,216.396,188.37,207.204L188.37,207.204z" style="fill:none;stroke:#202020;stroke-width:0.4819;stroke-miterlimit:10;"/><path d="M300.085,207.204    c-0.166-5.718-3.53-9.026-9.583-10.145c-16.479-1.738-33.578,0.896-35.876,7.96c-5.549,21.019,19.002,34.528,34.528,25.11    C297.676,224.356,299.862,216.396,300.085,207.204L300.085,207.204z" style="fill:none;stroke:#202020;stroke-width:0.4819;stroke-miterlimit:10;"/><path d="    M266.341,195.208c13.96-1.178,27.636-0.952,41.313-0.783c0,1.961,0,3.866-0.057,5.771c-6.168,1.517-0.448,8.409-7.622,8.353    c0.335-2.97-0.395-5.83-2.694-8.519c-3.361-2.635-7.622-3.361-12.218-3.305c-8.24-0.508-16.536,0.053-24.888,3.023    c-3.531,1.738-6.335,4.147-6.111,8.856C245.657,209.168,250.814,197.395,266.341,195.208L266.341,195.208z" style="fill-rule:evenodd;clip-rule:evenodd;fill:#202020;stroke:#202020;stroke-width:0.4819;stroke-miterlimit:10;"/><path d="    M222.114,195.208c-13.957-1.178-27.634-0.952-41.312-0.783c0,1.961,0.057,3.866,0.057,5.771c6.165,1.517,0.448,8.409,7.68,8.353    c-0.393-2.97,0.336-5.83,2.634-8.519c3.364-2.635,7.623-3.361,12.22-3.305c8.24-0.508,16.536,0.053,24.889,3.023    c3.531,1.738,6.333,4.147,6.109,8.856C242.799,209.168,237.643,197.395,222.114,195.208L222.114,195.208z" style="fill-rule:evenodd;clip-rule:evenodd;fill:#202020;stroke:#202020;stroke-width:0.4819;stroke-miterlimit:10;"/><path d="    M234.446,200.086c6.614-1.4,13.173-1.288,19.451,0.054c-0.953,0.786-1.906,1.629-2.466,2.578c-4.654-0.558-9.417-0.614-14.351,0    C236.354,201.769,235.455,200.926,234.446,200.086L234.446,200.086z" style="fill-rule:evenodd;clip-rule:evenodd;fill:#202020;stroke:#202020;stroke-width:0.4819;stroke-miterlimit:10;"/><path d="M280.411,93.919L280.411,93.919    c13.565-1.457,25.279,4.43,34.471,19.061c21.134,40.357,39.856,137.946-2.071,166.589c-12.221,5.833-25.843,6.278-39.518,4.035    c27.297-20.57,39.292-58.63,33.631-92.039c-13.061-15.191-23.991-31.949-30.044-51.288c-26.065,29.261-48.544,41.535-92.153,38.9    c-6.782,16.983-9.977,77.019,17.824,95.517c-70.233,25.445-60.873-96.189-47.588-136.435    C169.872,93.246,238.986,49.637,280.411,93.919L280.411,93.919z" style="fill-rule:evenodd;clip-rule:evenodd;fill:#353535;"/><path d="M176.375,336.969c10.761-8.578,19.451-12.162,31.67-11.937    c-6.39,8.296-5.324,17.595-2.914,25.891c10.313,24.837,24.216,47.87,37.611,71.134c14.462-29.875,43.722-71.185,36.099-104.43    c11.604-1.567,21.975-0.276,31.279,4.04c-7.231,54.148-35.092,92.489-67.378,127.521    C208.157,418.247,180.188,380.69,176.375,336.969L176.375,336.969z" style="fill-rule:evenodd;clip-rule:evenodd;fill:#595959;"/><path d="M176.375,336.969c6.165,47.307,34.193,81.109,66.367,112.219    c29.934-34.361,57.233-72.588,67.378-127.521c10.874,2.074,21.522,4.092,31.836,6.109c8.972,2.688,33.465,50.615,41.26,76.85    l6.5,50c-38.173,25.784-84.192,40.809-133.745,40.809c-50.392,0-97.142-15.583-135.706-42.155    c0.84-33.409,0.113-67.037,8.127-86.824C140.557,348.178,156.869,339.042,176.375,336.969L176.375,336.969z" style="fill-rule:evenodd;clip-rule:evenodd;fill:#414141;"/><path d="M326.937,401.994    c0,16.812-0.952,31.165,1.68,47.419c1.009,5.996,7.23,12.331,8.803,31.78" style="fill:none;stroke:#3E3E3E;stroke-width:0.4819;stroke-miterlimit:10;"/><path d="M170.714,419.645    c-5.998,19.174-0.562,16.648-16.2,35.15c-4.315,5.157-6.558,10.032-7.118,14.631 M242.631,495.04    c3.026-2.744-2.971-12.557,7.903-14.518c20.572-3.646-11.548-0.614,9.304,14.855 M330.242,483.662    c1.626-15.471-1.569-34.249-1.626-34.249" style="fill:none;stroke:#3E3E3E;stroke-width:0.4819;stroke-miterlimit:10;"/></g></g><g id="Layer_1"/></svg>