<?xml version="1.0" ?><!DOCTYPE svg  PUBLIC '-//W3C//DTD SVG 1.1//EN'  'http://www.w3.org/Graphics/SVG/1.1/DTD/svg11.dtd'><svg height="512px" style="enable-background:new 0 0 512 512;" version="1.1" viewBox="0 0 512 512" width="512px" xml:space="preserve" xmlns="http://www.w3.org/2000/svg" xmlns:xlink="http://www.w3.org/1999/xlink"><g id="_x34_90_x2C__tube_x2C__test_x2C__lab_x2C__medical"><g><polygon points="408.334,206 371,206 321,206 281,206 231,206 191,206 141,206 104.333,206 81,206 81,386     81,426 431,426 431,206   " style="fill:#FFF2D4;"/><polygon points="90.5,395.5 90.5,215.5 113.833,215.5 150.5,215.5 200.5,215.5 240.5,215.5 290.5,215.5     330.5,215.5 380.5,215.5 417.834,215.5 431,215.5 431,206 408.334,206 371,206 321,206 281,206 231,206 191,206 141,206     104.333,206 81,206 81,386 81,426 90.5,426   " style="fill:#E5D0A8;"/><polygon points="461.43,426 461.43,486 50.57,486 50.57,426 81,426 431,426   " style="fill:#32313F;"/><polygon points="60.57,437 91,437 441,437 461.43,437 461.43,426 431,426 81,426 50.57,426 50.57,486     60.57,486   " style="fill:#252530;"/><path d="M321,166v40v115c0,13.81,11.19,25,25,25s25-11.19,25-25V206v-40H321z" style="fill:#A8CFFF;"/><path d="M329.5,329.5v-115v-40H371V166h-50v40v115c0,9.084,4.844,17.034,12.088,21.412    C330.812,338.643,329.5,334.226,329.5,329.5z" style="fill:#8AB7E2;"/><rect height="70" style="fill:#F0F1F1;" width="50" x="321" y="96"/><polygon points="329.459,104.375 371,104.375 371,96 321,96 321,166 329.459,166   " style="fill:#DEE0E0;"/><path d="M281,276v45c0,13.81-11.19,25-25,25c-13.81,0-25-11.19-25-25v-45H281z" style="fill:#FF7979;"/><path d="M239.5,330v-45H281v-9h-50v45c0,8.893,4.644,16.693,11.636,21.125    C240.641,338.534,239.5,334.401,239.5,330z" style="fill:#D65B5B;"/><polygon points="231,96 231,206 231,276 281,276 281,206 281,96   " style="fill:#F0F1F1;"/><polygon points="239.5,215 239.5,105 281,105 281,96 231,96 231,206 231,276 239.5,276   " style="fill:#DEE0E0;"/><path d="M141,146v60v115c0,13.81,11.19,25,25,25s25-11.19,25-25V206v-60H141z" style="fill:#FEBE76;"/><path d="M149.5,330.333v-115v-60H191V146h-50v60v115c0,8.776,4.523,16.49,11.363,20.95    C150.538,338.479,149.5,334.528,149.5,330.333z" style="fill:#E8A664;"/><rect height="50" style="fill:#F0F1F1;" width="50" x="141" y="96"/><polygon points="149.5,104.667 191,104.667 191,96 141,96 141,146 149.5,146   " style="fill:#DEE0E0;"/><rect height="20" width="20" x="151" y="56"/><rect height="20" width="20" x="151" y="26"/><path d="M461.43,491c-2.762,0-5-2.238-5-5v-55H55.57v55c0,2.762-2.239,5-5,5s-5-2.238-5-5v-60c0-2.762,2.239-5,5-5h410.86    c2.762,0,5,2.238,5,5v60C466.43,488.762,464.191,491,461.43,491z"/><path d="M481,491H31c-2.761,0-5-2.238-5-5s2.239-5,5-5h450c2.762,0,5,2.238,5,5S483.762,491,481,491z"/><path d="M81,431c-2.761,0-5-2.238-5-5V176c0-2.761,2.239-5,5-5s5,2.239,5,5v250C86,428.762,83.761,431,81,431z"/><path d="M431,431c-2.762,0-5-2.238-5-5V176c0-2.761,2.238-5,5-5s5,2.239,5,5v250C436,428.762,433.762,431,431,431z"/><path d="M471,211H41c-2.761,0-5-2.239-5-5s2.239-5,5-5h430c2.762,0,5,2.239,5,5S473.762,211,471,211z"/><path d="M166,351c-16.542,0-30-13.458-30-30V96c0-2.761,2.239-5,5-5h50c2.761,0,5,2.239,5,5v225C196,337.542,182.542,351,166,351z     M146,101v220c0,11.028,8.972,20,20,20s20-8.972,20-20V101H146z"/><path d="M256,351c-16.542,0-30-13.458-30-30V96c0-2.761,2.239-5,5-5h50c2.762,0,5,2.239,5,5v225C286,337.542,272.542,351,256,351z     M236,101v220c0,11.028,8.972,20,20,20c11.028,0,20-8.972,20-20V101H236z"/><path d="M346,351c-16.542,0-30-13.458-30-30V96c0-2.761,2.238-5,5-5h50c2.762,0,5,2.239,5,5v225C376,337.542,362.542,351,346,351z     M326,101v220c0,11.028,8.972,20,20,20s20-8.972,20-20V101H326z"/><path d="M191,151h-50c-2.761,0-5-2.239-5-5s2.239-5,5-5h50c2.761,0,5,2.239,5,5S193.761,151,191,151z"/><path d="M281,281h-50c-2.761,0-5-2.238-5-5s2.239-5,5-5h50c2.762,0,5,2.238,5,5S283.762,281,281,281z"/><path d="M371,171h-50c-2.762,0-5-2.239-5-5s2.238-5,5-5h50c2.762,0,5,2.239,5,5S373.762,171,371,171z"/><path d="M251,71c-2.761,0-5-2.239-5-5V26c0-2.761,2.239-5,5-5s5,2.239,5,5v40C256,68.761,253.761,71,251,71z"/><path d="M341,71c-2.762,0-5-2.239-5-5v-7.5c0-20.678,16.822-37.5,37.5-37.5H411c2.762,0,5,2.239,5,5s-2.238,5-5,5h-37.5    C358.337,31,346,43.336,346,58.5V66C346,68.761,343.762,71,341,71z"/><path d="M321,391H81c-2.761,0-5-2.238-5-5s2.239-5,5-5h240c2.762,0,5,2.238,5,5S323.762,391,321,391z"/><path d="M361,391h-10c-2.762,0-5-2.238-5-5s2.238-5,5-5h10c2.762,0,5,2.238,5,5S363.762,391,361,391z"/></g></g><g id="Layer_1"/></svg>