<?xml version="1.0" ?><!DOCTYPE svg  PUBLIC '-//W3C//DTD SVG 1.1//EN'  'http://www.w3.org/Graphics/SVG/1.1/DTD/svg11.dtd'><svg enable-background="new 0 0 24 24" version="1.1" viewBox="0 0 24 24" xml:space="preserve" xmlns="http://www.w3.org/2000/svg" xmlns:xlink="http://www.w3.org/1999/xlink"><g id="Layer_27"/><g id="Layer_2"/><g id="Layer_3"/><g id="Layer_4"/><g id="Layer_5"/><g id="Layer_6"/><g id="Layer_7"/><g id="Layer_8"/><g id="Layer_9"/><g id="Layer_10"/><g id="Layer_11"/><g id="Layer_12"><g><path d="M22.02,18c0,0.55-0.45,1-1,1c-0.01,0-0.01,0-0.02,0h-2v2c0,0.4-0.24,0.77-0.62,0.92    C18.26,21.98,18.13,22,18,22c-0.26,0-0.52-0.1-0.71-0.29L12,16.42l-5.29,5.29C6.52,21.9,6.26,22,6,22c-0.13,0-0.26-0.02-0.38-0.08    C5.24,21.77,5,21.4,5,21v-2H3c-0.55,0-1-0.45-1-1s0-0.58,5.03-5.5c0.4-0.39,1.03-0.38,1.41,0.01C9.39,13.47,10.65,14,12,14    s2.61-0.53,3.56-1.49c0.38-0.39,1.02-0.4,1.41-0.01c3.04,2.97,4.2401,4.16,4.72,4.76C21.89,17.44,22.02,17.7,22.02,18z" fill="#6059B1"/></g><g><path d="M19,9c0,1.85-0.72,3.6-2.02,4.91C15.66,15.26,13.89,16,12,16s-3.66-0.74-4.98-2.09C5.72,12.6,5,10.85,5,9    c0-3.86,3.14-7,7-7S19,5.14,19,9z" fill="#FFBF42"/></g></g><g id="Layer_13"/><g id="Layer_14"/><g id="Layer_15"/><g id="Layer_16"><g id="Layer_17"/></g><g id="Layer_18"/><g id="Layer_19"/><g id="Layer_20"/><g id="Layer_21"/><g id="Layer_22"/><g id="Layer_23"/><g id="Layer_24"/><g id="Layer_25"/><g id="Layer_26"/></svg>